<svg xmlns="http://www.w3.org/2000/svg" viewBox="0 0 200 200" width="200" height="200">
  <!-- Background circle with gradient -->
  <defs>
    <linearGradient id="bgGradient" x1="0%" y1="0%" x2="100%" y2="100%">
      <stop offset="0%" style="stop-color:#007ACC;stop-opacity:1" />
      <stop offset="100%" style="stop-color:#005A9E;stop-opacity:1" />
    </linearGradient>
    
    <!-- Glow effect -->
    <filter id="glow">
      <feGaussianBlur stdDeviation="3" result="coloredBlur"/>
      <feMerge> 
        <feMergeNode in="coloredBlur"/>
        <feMergeNode in="SourceGraphic"/>
      </feMerge>
    </filter>
    
    <!-- Connection pulse animation -->
    <animate id="pulse" attributeName="opacity" values="0.3;1;0.3" dur="2s" repeatCount="indefinite"/>
  </defs>
  
  <!-- Main background -->
  <circle cx="100" cy="100" r="90" fill="url(#bgGradient)" stroke="#ffffff" stroke-width="2"/>
  
  <!-- VS Code representation (left side) -->
  <g transform="translate(35, 70)">
    <!-- VS Code window -->
    <rect x="0" y="0" width="40" height="30" rx="3" fill="#1E1E1E" stroke="#404040" stroke-width="1"/>
    <!-- Title bar -->
    <rect x="0" y="0" width="40" height="6" rx="3" fill="#323233"/>
    <!-- Window controls -->
    <circle cx="6" cy="3" r="1.5" fill="#FF5F57"/>
    <circle cx="12" cy="3" r="1.5" fill="#FFBD2E"/>
    <circle cx="18" cy="3" r="1.5" fill="#28CA42"/>
    <!-- Code lines -->
    <rect x="3" y="10" width="15" height="1.5" fill="#569CD6"/>
    <rect x="3" y="14" width="20" height="1.5" fill="#9CDCFE"/>
    <rect x="3" y="18" width="12" height="1.5" fill="#CE9178"/>
    <rect x="3" y="22" width="18" height="1.5" fill="#4EC9B0"/>
  </g>
  
  <!-- Browser representation (right side) -->
  <g transform="translate(125, 70)">
    <!-- Browser window -->
    <rect x="0" y="0" width="40" height="30" rx="3" fill="#FFFFFF" stroke="#E1E4E8" stroke-width="1"/>
    <!-- Address bar -->
    <rect x="2" y="3" width="36" height="4" rx="2" fill="#F6F8FA"/>
    <!-- URL -->
    <rect x="4" y="4" width="8" height="2" rx="1" fill="#0366D6"/>
    <rect x="14" y="4" width="12" height="2" rx="1" fill="#586069"/>
    <!-- Content area -->
    <rect x="3" y="10" width="34" height="17" fill="#FAFBFC"/>
    <!-- Web content -->
    <rect x="5" y="12" width="12" height="2" fill="#24292E"/>
    <rect x="5" y="16" width="18" height="1" fill="#586069"/>
    <rect x="5" y="19" width="15" height="1" fill="#586069"/>
    <rect x="5" y="22" width="20" height="1" fill="#586069"/>
  </g>
  
  <!-- Connection bridge with AI element -->
  <g transform="translate(100, 85)">
    <!-- Central AI brain/node -->
    <circle cx="0" cy="0" r="12" fill="#00D4AA" filter="url(#glow)"/>
    <circle cx="0" cy="0" r="8" fill="#00F5D4" opacity="0.8"/>
    
    <!-- AI neural pattern inside -->
    <g stroke="#FFFFFF" stroke-width="1.5" fill="none" opacity="0.9">
      <circle cx="0" cy="0" r="4"/>
      <path d="M-3,-3 L3,3 M-3,3 L3,-3"/>
      <circle cx="-2" cy="-2" r="0.8" fill="#FFFFFF"/>
      <circle cx="2" cy="2" r="0.8" fill="#FFFFFF"/>
    </g>
    
    <!-- Connection lines to VS Code -->
    <g stroke="#00D4AA" stroke-width="2" opacity="0.7">
      <path d="M-12,0 Q-25,-5 -35,0" fill="none">
        <animate attributeName="opacity" values="0.3;1;0.3" dur="1.5s" repeatCount="indefinite"/>
      </path>
      <path d="M-12,-5 Q-25,-10 -35,-5" fill="none">
        <animate attributeName="opacity" values="0.3;1;0.3" dur="1.5s" begin="0.3s" repeatCount="indefinite"/>
      </path>
    </g>
    
    <!-- Connection lines to Browser -->
    <g stroke="#00D4AA" stroke-width="2" opacity="0.7">
      <path d="M12,0 Q25,-5 35,0" fill="none">
        <animate attributeName="opacity" values="0.3;1;0.3" dur="1.5s" begin="0.6s" repeatCount="indefinite"/>
      </path>
      <path d="M12,-5 Q25,-10 35,-5" fill="none">
        <animate attributeName="opacity" values="0.3;1;0.3" dur="1.5s" begin="0.9s" repeatCount="indefinite"/>
      </path>
    </g>
    
    <!-- Data flow particles -->
    <g fill="#00F5D4" opacity="0.8">
      <circle cx="-20" cy="-2" r="1">
        <animate attributeName="cx" values="-20;20" dur="2s" repeatCount="indefinite"/>
        <animate attributeName="opacity" values="0;1;0" dur="2s" repeatCount="indefinite"/>
      </circle>
      <circle cx="20" cy="2" r="1">
        <animate attributeName="cx" values="20;-20" dur="2s" begin="1s" repeatCount="indefinite"/>
        <animate attributeName="opacity" values="0;1;0" dur="2s" begin="1s" repeatCount="indefinite"/>
      </circle>
    </g>
  </g>
  
  <!-- Project name -->
  <text x="100" y="165" text-anchor="middle" font-family="Arial, sans-serif" font-size="16" font-weight="bold" fill="#FFFFFF">
    ConnAI
  </text>
  
  <!-- Tagline -->
  <text x="100" y="180" text-anchor="middle" font-family="Arial, sans-serif" font-size="8" fill="#B3D9FF" opacity="0.9">
    Bridge • Connect • Enhance
  </text>
</svg>
